<svg xmlns="http://www.w3.org/2000/svg" viewBox="-37.1 -110.7 741.5 741.5"><path d="M333.6 630.8c-50 0-98.6-9.8-144.3-29.1-44.2-18.7-83.8-45.4-117.8-79.5-34-34-60.8-73.7-79.5-117.8-19.3-45.7-29.1-94.3-29.1-144.3s9.8-98.6 29.1-144.3C10.7 71.6 37.4 31.9 71.5-2.1c34-34 73.7-60.8 117.8-79.5 45.7-19.3 94.3-29.1 144.3-29.1 50 0 98.6 9.8 144.3 29.1 44.2 18.7 83.8 45.4 117.8 79.5 34 34 60.8 73.7 79.5 117.8 19.3 45.7 29.1 94.3 29.1 144.3s-9.8 98.6-29.1 144.3c-18.7 44.2-45.4 83.8-79.5 117.8-34 34-73.7 60.8-117.8 79.5-45.7 19.4-94.2 29.2-144.3 29.2zm0-716.5C143-85.7-12.1 69.4-12.1 260c0 190.7 155.1 345.8 345.8 345.8 190.7 0 345.8-155.1 345.8-345.8-.1-190.6-155.2-345.7-345.9-345.7z"/><path d="M319.4 428.2L132.6 266.4l16.4-18.9 167.2 144.8L549.5 102l19.4 15.6z"/></svg>