<svg xmlns="http://www.w3.org/2000/svg" viewBox="37.5 162.5 363.4 516.4"><path d="M94.9 545.9h248.6V565H94.9z"/><path d="M286.1 162.5H75.8c-21 0-38.3 17.2-38.3 38.3v439.9c0 21 17.2 38.3 38.3 38.3h286.9c21 0 38.3-17.2 38.3-38.3V296.4L286.1 162.5zm0 28.7L376 296.4h-70.8c-9.6 0-19.1-9.6-19.1-19.1v-86.1zm95.7 449.4c0 9.6-7.6 19.1-19.1 19.1H75.8c-9.6 0-19.1-7.6-19.1-19.1V200.8c0-9.6 7.7-19.1 19.1-19.1H267v95.6c0 21 17.2 38.3 38.3 38.3h76.5v325z"/><path d="M94.9 488.5h248.6v19.1H94.9zm0-114.7h248.6v19.1H94.9zm0 57.3h248.6v19.1H94.9z"/></svg>