<svg xmlns="http://www.w3.org/2000/svg" viewBox="0 0 80 23.2"><path d="M53.3 10.1c-3.9 0-4.9 2.2-4.9 4.5v2.2c0 2.3 1 4.5 4.9 4.5 3.9 0 4.9-2.2 4.9-4.5v-2.2c-.1-2.3-1-4.5-4.9-4.5zm1.5 7c0 .8-.4 1.4-1.5 1.4s-1.5-.6-1.5-1.4v-2.8c0-.8.4-1.4 1.5-1.4s1.5.6 1.5 1.4v2.8zm-37.1-2.3v2c0 2.7 1.4 4.6 5 4.6.8 0 1.8-.1 3.3-.4v-2.7c-1.7.3-2.2.4-3.1.4-1.5 0-2-.3-2-1.6v-2.4c0-1.3.5-1.6 2-1.6.8 0 1.3.1 3.1.4v-2.7c-1.5-.3-2.5-.4-3.3-.4-3.5-.3-5 1.6-5 4.4zm-10-4.5H5.2V8.9c0-.7.1-1.1 1.1-1.1h1.4V5H5.5C2.8 5 1.8 6.4 1.8 8.6v1.7H.2v2.8h1.7v8.1h3.3v-8.1h2.2l.3-2.8zm4.2 0H8.8l-.3 2.8h2.9c1.7 0 1.9.3 1.9 1.5v.4H11c-2.3 0-3.5.8-3.5 3 0 1.9 1.1 3.2 3.1 3.2.7 0 1.9-.1 3.2-.8l.1.7h2.8v-6.6c-.1-3-.9-4.2-4.8-4.2zm1.4 8.2c-.5.2-.9.5-1.6.5-.6 0-.9-.3-.9-.9 0-.6.3-.7 1-.7h1.5v1.1zm62.9-8.2l-3.1 4.8V5.3l-3.3.5v15.4h3.3v-5.1l3.1 5.1h3.6l-3.3-5.6 3.3-5.3zM64 10.1c-3.9 0-4.9 2.2-4.9 4.5v2.2c0 2.3 1 4.5 4.9 4.5 3.9 0 4.9-2.2 4.9-4.5v-2.2c-.1-2.3-1-4.5-4.9-4.5zm1.5 7c0 .8-.4 1.4-1.5 1.4s-1.5-.6-1.5-1.4v-2.8c0-.8.4-1.4 1.5-1.4s1.5.6 1.5 1.4v2.8zm-22-7c-.9 0-1.8.1-2.5.4V5.3l-3.3.6v15c1.8.3 2.8.4 4.4.4 4.6 0 5.3-1.9 5.3-4.6V14c0-2.4-.5-3.9-3.9-3.9zm.6 6.7c0 1-.2 1.8-1.9 1.8H41v-5.1c.5-.2 1-.5 1.7-.5 1.1 0 1.4.6 1.4 1.4v2.4zm-12.3-6.7c-3.7 0-4.7 2-4.7 4.3v2.2c0 2.7 1.4 4.6 5 4.6 1.6 0 2.5-.1 4.2-.4v-2.7c-1.7.3-2.6.4-3.9.4-1.5 0-2-.3-2-1.6v-.2h6.1v-2.2c.1-2.4-1-4.4-4.7-4.4zm1.4 4.4h-2.8V14c0-.8.3-1.4 1.4-1.4 1.1 0 1.4.6 1.4 1.4v.5z" fill="#cbcccd"/></svg>