<svg id="Layer_1" xmlns="http://www.w3.org/2000/svg" viewBox="0 0 51.9 51.9"><style>.st0{fill:#fff}</style><path class="st0" d="M0 10.3C0 7 .9 4.4 2.7 2.7 4.4.9 7 0 10.3 0c10.5 0 27.2 9.2 33.4 15.4 3.8 3.8 5.9 8.8 5.9 14.2S47.5 40 43.7 43.8c-3.8 3.8-8.8 5.9-14.2 5.9-5.4 0-10.4-2.1-14.2-5.9C9.2 37.5 0 20.8 0 10.3zm45.2 19.4c0-4.2-1.6-8.2-4.6-11.2-5.5-5.7-21.3-14.3-30.3-14.3-2.1 0-3.7.5-4.6 1.4-.9.9-1.4 2.5-1.4 4.7 0 9.1 8.5 25 14.1 30.6 3 3 6.9 4.6 11.1 4.6 4.2 0 8.1-1.6 11.1-4.6 3-3 4.6-7 4.6-11.2z"/><path class="st0" d="M3.1 4.8c0-.6.2-1.1.6-1.5.9-.8 2.2-.8 3.1 0l44.5 44.9c.8.9.8 2.2 0 3.1-.9.8-2.2.8-3.1 0L3.7 6.3c-.4-.4-.6-1-.6-1.5z"/><path class="st0" d="M30.4 30.3V14.9c0-1.2.9-2.2 2.1-2.2 1.2 0 2.1 1 2.1 2.2v15.3c0 1.2-.9 2.2-2.1 2.2-1.2.1-2.1-.9-2.1-2.1zM10.8 26c0-1.1 1-2.1 2.3-2.1h10.3c1.3 0 2.3.9 2.3 2.1 0 1.1-1 2.1-2.3 2.1H13.1c-1.3-.1-2.3-1-2.3-2.1zm6.5-9V8.7c0-1.2.9-2.2 2.1-2.2 1.1 0 2.1 1 2.1 2.2V17c0 1.2-.9 2.2-2.1 2.2-1.1.1-2.1-.9-2.1-2.2zm4.5 22c0-1.1 1-2 2.2-2h15c1.2 0 2.2.9 2.2 2s-1 2-2.2 2H24c-1.3 0-2.2-.9-2.2-2z"/></svg>