<svg id="Layer_1" xmlns="http://www.w3.org/2000/svg" viewBox="0 0 61.4 61.4"><style>.st0{fill:#fff}</style><path class="st0" d="M30.7 61.4C13.8 61.4 0 47.6 0 30.7S13.8 0 30.7 0s30.7 13.8 30.7 30.7-13.8 30.7-30.7 30.7zm0-56.8C16.3 4.6 4.6 16.3 4.6 30.7c0 14.4 11.7 26.1 26.1 26.1 14.4 0 26.1-11.7 26.1-26.1 0-14.4-11.7-26.1-26.1-26.1z"/><path class="st0" d="M30.7 43.5c-.1 0-.3 0-.4-.1-.5-.2-12.3-4.7-12.3-13.8 0-3.5 3.1-6.3 6.9-6.3 2.4 0 4.6 1.6 5.9 3.3 1.2-1.7 3.2-3.3 5.5-3.3 3.8 0 6.9 2.8 6.9 6.3 0 9.3-11.7 13.7-12.2 13.9h-.3z"/></svg>