<svg id="Слой_1" xmlns="http://www.w3.org/2000/svg" viewBox="0 0 458 111.1"><style>.st0{fill:#36a9e1}.st1{fill:#a5d7f9}.st2{fill:#575756}</style><path class="st0" d="M198.3 31.5h9.6v66.6h31.9v8.1h-41.6V31.5zm111.8 36.6c0 25.7-15.6 39.3-34.7 39.3-19.7 0-33.6-15.3-33.6-37.9 0-23.7 14.7-39.2 34.7-39.2 20.4 0 33.6 15.7 33.6 37.8zm-58 1.2c0 16 8.6 30.3 23.8 30.3 15.3 0 23.9-14.1 23.9-31 0-14.9-7.8-30.4-23.8-30.4-15.9 0-23.9 14.7-23.9 31.1zm127.4 33.6c-4.3 1.6-12.9 4.1-22.9 4.1-11.3 0-20.6-2.9-27.9-9.9-6.4-6.2-10.4-16.2-10.4-27.8.1-22.3 15.4-38.6 40.5-38.6 8.6 0 15.4 1.9 18.6 3.4l-2.3 7.9c-4-1.8-9-3.2-16.5-3.2-18.2 0-30 11.3-30 30 0 19 11.4 30.1 28.8 30.1 6.3 0 10.6-.9 12.9-2V74.8h-15.2V67h24.6v35.9zM458 68.1c0 25.7-15.6 39.3-34.7 39.3-19.7 0-33.6-15.3-33.6-37.9 0-23.7 14.7-39.2 34.7-39.2 20.4 0 33.6 15.7 33.6 37.8zm-57.9 1.2c0 16 8.6 30.3 23.8 30.3 15.3 0 23.9-14.1 23.9-31 0-14.9-7.8-30.4-23.8-30.4s-23.9 14.7-23.9 31.1z"/><path class="st1" d="M32.8 90.9l8.7-6.8 5-7.8 4.6-3.3v-5.7l-9.4-4.7-5.1 8.8-3.4 11.3-7.5 1.8-12.3 11.1-4.7 8.6c7.1 1 14.2 2.8 21.7 2 .8.2 2 .2 2.9-.1l3.3-9.9-3.8-5.3z"/><path class="st1" d="M67 60.3c-.7-1-1.4-2-2.2-3-4.3-5.9-8.5-11.9-11.4-18.7-.6-1.2-1.3-2.3-1.9-3.5-1.8-3.5-3.4-7.1-4.6-10.9-.6.8-1 1.7-1.4 2.6-1.3 2.6-2.1 5.4-3.7 7.9-.6 1.2-1.1 2.4-1.7 3.6-2.3 4.7-4.8 9.4-8 13.9-.7 1.1-1.5 2.3-2.3 3.4-.8 1.1-1.6 2.2-2.5 3.3-.7 1.1-1.4 2.1-2 3.2-1.6 2.2-3.1 4.4-4.6 6.6-.7 1.1-1.5 2.2-2.2 3.3-4.2 8.9-10.6 16.7-15.7 24.8-.6 1.1-1.1 2.2-1.6 3.4-.5 1.2-.9 2.4-1.2 3.6h1.1c2.5 0 5 .2 7.5.5l-.2-.1 4.8-8.8 12.3-11.3 7.4-1.8 3.3-11.2 5.2-8.9v-6.7l-9.5 5-3.3 7.4-.3-.2 3.4-7.5 9.9-5.2 4.7-5.7 3.8-4.3v-3.5h.4v3.6l-3.8 4.4 9.5 7 1.9 8.7 3.3 3.9-.3.2-3.4-4-1.9-8.7-9.4-6.9-4.4 5.4V62l9.7 4.8V73l-4.6 3.3 2.7 6.4 4.1 6.4 1.2.7-.1.1c.4-.6.8-1.2 1.2-1.7.6-.9 1.2-1.8 1.7-2.8.4-.7.8-1.5 1.3-2.2 1.6-2.8 3.3-5.7 5.1-8.8.6-1 1.2-2.1 1.8-3.1 1.3-2.2 2.7-4.3 4.2-6.3-.4-.6-.7-1.2-1.1-1.8-.9-.8-1.5-1.9-2.2-2.9z"/><path class="st0" d="M146.1 67.6c-3-8.7-9.7-15.4-13.9-23.5-.4-.8-.8-1.6-1.3-2.4l-1.2-2.4c-.5-1.1-1.1-2.1-1.6-3.2-6.6-9.7-12.9-19.7-17.7-30.5-.5-.9-1-1.7-1.4-2.4-1.2-2.1-1.9-3.3-1.9-3.3s-3.3 5.7-8.3 14.5c-.5.8-.9 1.6-1.4 2.5l-1.8 2.7c-3.3 5-6 10.2-8.5 15.6-.5 1.1-1 2.1-1.5 3.2-.8 2.2-1.6 4.4-2.5 6.6-.5 1.1-1 2.1-1.5 3.2-2.8 6.5-7.3 11.6-11.4 17-1.5 2-3 4.1-4.2 6.3-.6 1-1.2 2.1-1.8 3.1-1.8 3.1-3.5 6-5.1 8.8-.4.8-.9 1.5-1.3 2.2-.5.9-1.1 1.9-1.7 2.8-.4.6-.8 1.2-1.2 1.7l-.1.2c-.2.3-.4.5-.5.8-1.9 3.6-5.6 6.2-8 9.7l-.3.2c3.6-.7 7.2-.8 10.8-.4l.1-.1.1-.2 3.9-5.8 8.5-5.2 7-8.5 1.9-1.2 7.8-5 7-3.5 7.6-16 7.7-5.5-1.7-4.2-11.3 4.4-11.6 11.8-3 10.6-.4-.1 3-10.7L95 49.5l11.6-4.5 8.8-3.6-3.6-4.6-2.2-7-3.1-4.1.3-.2 3.1 4.2 2.2 7 3.7 4.7 4.4 2.5 9.7 10 3.4 10-.4.1-3.3-9.9-9.6-9.9-4.2-2.5-8.8 3.6 1.9 4.4-.1.1-1.8 3.5 10.6 6.1 7.7 7.6 5.7 11 10.7 4.3-.1.3-10.9-4.3-5.7-10.9-5.6 9.2-7.7 7.9-6.5 3.2-.2-.3 6.5-3.2 7.6-7.8 5.6-9.3-7.6-7.4-10.8-6.2 1.6-3.2-7.2 5.1-7.5 15.9 2.4 13-.4.1L93 71.5l-6.8 3.4-7.8 5-1.9 1.2-7 8.5-8.5 5.2-3.8 5.8h.4c.8.2 1.6.1 2.4.3.3.1.6.1.8.2 8.9 2.2 17.9 3.4 26.9 3.2 1.1 0 2.3-.1 3.4-.1.1 0 .2-.1.3-.1.5-.2 1.1-.5 1.6-.7.5-.2 1.1-.4 1.6-.6 4.6-2.2 9.4-3.5 14.2-3.8 1.2-.1 2.4-.1 3.6-.1 2.4-.2 4.9-.3 7.3-.3 1.2 0 2.4 0 3.6.1 1 0 2-.1 3-.2 1.9-.8 3.8-1.3 5.7-1.5l-.1-.2.5-.2c3.9-3.2 7.4-5.9 10.2-10.3.5-.9 1-1.9 1.4-2.8.4-.7.8-1.5 1.3-2.2 1.4-2.5 2.9-5 4.4-7.5-.7-1.3-1.5-2.5-2.2-3.8-.5-.8-.9-1.6-1.4-2.4z"/><path class="st2" d="M163.1 104.3c.5.3 1.1.4 1.6.5-.6-.3-1.1-.4-1.6-.5zm-3.5-.3c.8.2 1.7.1 2.5.1h-.3c-.7 0-1.4 0-2.2-.1zm-15.7-6c-.9-.3-1.8-.5-2.8-.6.9.2 1.8.4 2.8.6z"/><path class="st1" d="M54.1 91.1c.2-.3.4-.5.5-.8l-1.3-.7-4.1-6.6-2.7-6.2-4.9 7.6-8.3 6.6 3.9 5.1-3.3 9.9c.4-.1.7-.3.9-.5 3.7-2.3 7.5-3.7 11.2-4.4l.1-.2c2.4-3.7 6.1-6.3 8-9.8zM159 89.9v4.7l3.8 4.8.5-1.5 1-2.5 4.5-4.6 4.8-1.5 1.1-6.7-1.5-4.4-4.4-8.7-5.8-1.4-1.4 6.7-6.4 5.2 5.9 4.1-.2.1.2.1-2.1 4.1z"/><path class="st1" d="M196.4 100.1v.2l-9.4-1.7-2.5-2.9-5.3-3.6-.9-5.6L175 83l-1.1 6.6-4.9 1.5-4.4 4.5-1 2.7-.5 1.4 2.7 5 .1.3-.2.1c2.8 1.1 5.5 2.8 8.3 4.1 4.1 2 8.5 2.3 12.7 1.6 1.1-.2 2.1-.4 3.2-.7 3.8-1.2 7.9-3.1 11.6-4.2-1.7-2-3.4-3.9-5.1-5.8z"/><path class="st1" d="M162.7 99.9l-4-5.2v-6.4l2.1-4-5.8-4.1-1.1.7-1.3.8-.6 4.3-2 4.3-17.3 6.7c2.8-.3 5.6-.1 8.3.4.9.2 1.9.4 2.8.6 5.3 1.4 10.4 3.8 15.6 5.9h.2c.7.1 1.5.1 2.2 0h.9c.1.1.2.1.3.2.5.1 1.1.3 1.6.5h.6l-2.5-4.7z"/><path class="st1" d="M149.6 90l1.9-4.1.6-4.3 1.4-1 1.1-.8 6.5-5.2 1.4-6.9 4.5-7.4.3.2-4.3 7.2 5.9 1.4v.1l4.5 8.8 1.5 4.5 3.6 3.7.9 5.6 5.2 3.6 2.5 2.8 9.1 1.7c-3.5-4.2-6.7-8.6-9.3-13.4-.7-1.1-1.4-2.3-2-3.5-4.5-8.3-7.6-17.2-11.2-25.9-.5-1.2-1-2.5-1.5-3.7-.8-3.1-2.3-5.7-3.8-8.3-2.6 6.7-7.8 11.2-11.4 17.2-.7 1-1.3 2-2 2.9-.7 1-1.4 2-2 2.9-.4.7-.8 1.4-1.3 2.2-.7 1.1-1.3 2.3-2 3.4-1.5 2.5-2.9 5.1-4.4 7.5-.4.7-.9 1.5-1.3 2.2-.4 1-.9 1.9-1.4 2.8-2.8 4.4-6.4 7.1-10.2 10.3l9.2-3.6 8-2.9z"/></svg>