<svg xmlns="http://www.w3.org/2000/svg" viewBox="0 0 80 23.5"><path d="M33.4 10.6c-1.4-.2-2.5-.5-2.5-1.4 0-.1 0-.2.1-.4.2-.5.9-.8 1.7-.8h.7c.9.1 1.9.6 2.6.9.2.1.5.1.6-.1.2-.4.5-1 .7-1.5.1-.4-.1-.6-.2-.7-.9-.6-2.5-1.2-4.4-1.2-3.2 0-5 1.7-5 4.1 0 2.5 2 3.3 4.5 3.8 1.6.3 2.5.7 2.6 1.4 0 .8-.7 1.3-2 1.3h-.3c-1.4 0-2.6-.8-3.3-1.2-.2-.1-.6-.1-.8.1-.3.3-.6.9-.8 1.5-.2.4.2.7.2.8.9.8 2.5 1.5 4.8 1.6 3.5.1 5.3-2 5.3-4.2 0-2.8-1.9-3.5-4.5-4zm-12.6.9l-2.3.8-1.7-4.9 2.3-.8c1-.3 1.5-1.4 1.2-2.4-.3-1-1.4-1.5-2.4-1.2l-2.3.8-.8-2.3C14.5.5 13.4 0 12.4.3c-1 .3-1.5 1.4-1.2 2.4l.8 2.4-4.9 1.7-.8-2.3c-.4-1-1.4-1.5-2.4-1.2-1 .3-1.5 1.4-1.2 2.4L3.6 8l-2.3.8c-1 .3-1.5 1.4-1.2 2.4.3 1 1.4 1.5 2.4 1.2l2.3-.8 1.7 4.9-2.3.8c-1 .3-1.5 1.4-1.2 2.4.3 1 1.4 1.5 2.4 1.2l2.3-.9.8 2.3c.3 1 1.4 1.5 2.4 1.2 1-.3 1.5-1.4 1.2-2.4l-.8-2.3 4.9-1.7.8 2.3c.3 1 1.4 1.5 2.4 1.2 1-.3 1.5-1.4 1.2-2.4l-.8-2.3L22 15c1-.3 1.5-1.4 1.2-2.4-.4-.9-1.4-1.4-2.4-1.1zM10 15.2l-1.7-4.9 4.9-1.7 1.7 4.9-4.9 1.7zm39.5-9.6c-2.6-.1-4.2 1.1-5 1.8-.1.1-.2.2-.1.4s.8 1.3 1.1 1.7c.1.1.3.1.4.1.5-.3 1.8-1.1 2.8-1.2h.8c1.3.2 1.9.8 2.1 1.5.1.3.1.9.1 1.2 0 .1-.1.1-.2.1-1.1-.4-2.5-.6-3.8-.4-2 .3-3.8 1.5-3.8 4.1 0 2.5 2.1 3.7 4.2 3.7 1.4 0 2.7-.4 3.5-1.3 0 0 .2 0 .2.1v.7c0 .2 0 .3.3.3h2.5c.2 0 .3-.1.3-.3 0-1.1.1-5.5.1-7.1-.3-3.7-2.1-5.3-5.5-5.4zm2 9.5c-.4.7-1.3 1.2-2.5 1.3-1.2.1-2.1-.5-2.1-1.6 0-1.4 1.7-1.8 3.4-1.9.5 0 .7.1 1.1.2.1 0 .2.2.2.3.1.5.1 1.4-.1 1.7zm26.1-.9c-.9-1.3-1.9-2.5-2.3-2.9-.1-.1-.1-.2 0-.3.6-.6 3.2-3.1 4.1-4.1.4-.4.1-.6-.2-.7-.6-.2-1.6-.4-2.2-.5-.2-.1-.5 0-.7.2-1 .9-3.9 3.8-4.8 4.7-.2.2-.3.1-.3-.1 0-1.7 0-9-.1-10.2.2-.1 0-.3-.1-.3h-2.5c-.2 0-.3.2-.3.3-.1 1.9.1 15.9.1 17.9 0 .1.1.3.2.3H71c.3 0 .3-.2.3-.2v-3.8s0-.2.1-.2c.2-.2.8-.9 1.1-1.2.1-.1.2-.1.2 0 .3.4 1.2 1.8 2 3 .8 1.1 1.5 2.1 1.5 2.2.1.2.2.2.3.2.2 0 2.4-.3 3-.5.2 0 .2-.2.1-.3 0-.5-1-2.1-2-3.5zM42.2 0c-.6 0-2.1 0-2.6.1-.1 0-.2.1-.2.2-.1 5.3 0 17.6 0 17.9s.1.3.4.4h2.3c.2 0 .3-.2.3-.3.1-2.8.1-15.9 0-17.9 0-.3-.1-.3-.2-.4zm20.5 8.5c1.1 0 2.1.5 2.7.8.2.1.4.3.5.1.4-.5.9-1.3 1.1-1.8 0-.1.1-.2 0-.4-.3-.5-2.1-1.7-4.6-1.6-4 0-6.5 3-6.4 6.5 0 3.5 2.2 6.6 6.5 6.6 2.1 0 3.6-.9 4.5-1.9.1-.1.2-.3 0-.5-.3-.4-.8-1-1.2-1.4-.2-.1-.4-.2-.5-.1-.5.5-1.5 1.1-2.6 1-2 0-3.3-1.3-3.3-3.7 0-2.3 1.4-3.6 3.3-3.6z" fill="#cbcccd"/></svg>