<svg id="Слой_1" xmlns="http://www.w3.org/2000/svg" viewBox="0 0 80 23.2"><style>.st0{fill:#cbcccd}</style><path class="st0" d="M11.7 0C5.2 0 0 5.2 0 11.6 0 18 5.2 23.2 11.7 23.2c6.5 0 11.7-5.2 11.7-11.6C23.4 5.2 18.2 0 11.7 0zm5.4 16.7c-.2.3-.6.4-.9.3-.1 0-.1-.1-.2-.1-1.2-.7-2.6-1.2-4-1.4-.9-.1-1.7-.2-2.6-.1-1.1 0-2.3.2-3.4.4h-.3c-.3 0-.6-.2-.7-.6-.1-.3.1-.7.4-.8.1 0 .1 0 .2-.1.9-.2 1.8-.4 2.8-.4.5 0 1-.1 1.6-.1 1.5 0 3 .2 4.5.7.8.3 1.6.6 2.3 1.1.1 0 .1.1.2.1.2.3.2.7.1 1zm1.4-3.2c-.3.4-.8.6-1.2.3-.3-.1-.5-.3-.8-.4-1.2-.6-2.4-1-3.7-1.2-1-.2-2-.3-3.1-.3-1.3 0-2.7.2-4 .6-.2.1-.4.1-.7 0-.3-.1-.6-.5-.6-.9s.2-.7.6-.8c.4-.1.8-.2 1.1-.3.9-.2 1.9-.3 2.9-.4 2.1-.1 4.1.2 6.1.8 1 .3 2 .7 2.9 1.3l.1.1c.6.3.6.8.4 1.2zm1.7-4.4v.2c0 .8-.9 1.4-1.6.9-.5-.3-1-.5-1.6-.8-1-.4-2.1-.6-3.2-.8l-2.4-.3c-.8 0-1.7-.1-2.5 0-1 0-1.9.1-2.9.3-.3.1-.6.2-1 .3-.2.1-.4.1-.6 0-.5-.1-.8-.5-.8-1s.3-.9.7-1c.3-.1.7-.2 1-.3.9-.2 1.7-.3 2.6-.4.9-.1 1.8-.1 2.7-.1 2.2.1 4.4.4 6.6 1.1.9.3 1.7.7 2.5 1.1.3.2.5.4.5.8zm14.1 1.6c-1.9-.5-2.4-.7-2.4-1.5 0-.5.5-1 1.4-1s1.9.4 2.9 1.1l1.3-1.9C36.3 6.5 35 6 33.3 6c-2.3 0-3.9 1.4-3.9 3.4 0 2.2 1.5 2.9 3.7 3.5 1.9.5 2.3.8 2.3 1.4 0 .7-.6 1.1-1.6 1.1-1.3 0-2.3-.5-3.3-1.4L29 15.8c1.3 1.2 3 1.8 4.7 1.8 2.4 0 4.1-1.3 4.1-3.5 0-2-1.3-2.8-3.5-3.4z"/><ellipse class="st0" cx="64.8" cy="6.5" rx="1.4" ry="1.4"/><path class="st0" d="M63.7 8.9h2.2v8.5h-2.2zm14 0l-2.1 5.8-2.3-5.8h-3.4v-.4c0-.6.5-.9 1.1-.9.4 0 .8.1 1.1.2v-2c-.5-.1-1-.2-1.8-.2-.9 0-1.5.2-1.9.7-.5.4-.7 1.1-.7 2.1v.5h-1.1v1.9h1v6.6h2.3v-6.6h1.8l2.7 6.5c-.2.5-.6.8-1 .8-.3 0-.8-.2-1.1-.4l-.8 1.7c.6.4 1.5.6 2.3.6 1.5 0 2.3-1.3 2.5-2L80 8.9h-2.3zm-25-.2c-2.6 0-4.6 2-4.6 4.5s2 4.4 4.6 4.4c2.6 0 4.6-2 4.6-4.5-.1-2.4-2-4.4-4.6-4.4zm-.1 7.1c-1.3 0-2.4-1.1-2.4-2.5s1.1-2.5 2.4-2.5 2.4 1.1 2.4 2.5-1 2.5-2.4 2.5zm-9-7.1c-1.4 0-2.3.5-2.9 1.3V8.9h-2.2V20h2.2v-3.6c.6.7 1.4 1.3 2.6 1.3 2 0 4-1.6 4-4.4.2-3-1.8-4.6-3.7-4.6zm-.6 7c-1.2 0-2.3-1.1-2.3-2.5s1-2.5 2.3-2.5 2.3 1.1 2.3 2.5c-.1 1.4-1.1 2.5-2.3 2.5zm17.6-9.1h-2.2v2.3h-1.1v2h1.1V15c0 2 1 2.6 2.5 2.6.8 0 1.4-.2 1.9-.5v-1.9c-.4.2-.8.3-1.2.3-.5 0-1-.2-1-.9v-3.9h2.2v-2h-2.2V6.6z"/></svg>