<svg id="Слой_1" xmlns="http://www.w3.org/2000/svg" viewBox="-264.6 348.9 114.3 97.1"><style>.st0{fill:#fff}</style><path class="st0" d="M-150.7 373.3c-.6-.9-1.6-1.3-2.7-1-1.9.6-4.3 1.1-7.1 1.5 2.6-1.3 4.7-2.8 6.2-4.3.9-.9.9-2.4 0-3.3-.7-.7-1.8-.9-2.7-.5-2.7 1.3-5.7 1.9-8.9 2-5.4-11.5-14.9-15.8-15.3-15.9-5.8-2.7-11.4-3.4-16.4-2.3-13.3 3-19.4 18.8-17.4 31.8-3.5-.2-22.4-2.1-46.2-15.6-1.1-.6-2.6-.2-3.2.9-.2.4-.3.8-.3 1.2.3 14.1 13.1 20.8 18.6 23-1.2.1-3 .1-4.7.1-1.3-.1-2.4 1-2.4 2.3 0 .8.4 1.6 1 2.1 3.9 2.6 7.7 4.3 11.5 5-.8.1-1.7.1-2.5.1-1.3 0-2.3 1.1-2.3 2.4 0 .8.5 1.6 1.2 2 3.5 2 9 4.5 15.1 4.5h.4c-.7.3-1.5.5-2.2.6-.2.1-.5.1-.7.2-1.3.2-2.1 1.5-1.9 2.8.2.9.8 1.5 1.6 1.8 4.5 1.4 8.6 1.7 12.2.9.7-.1 1.3-.3 2-.6-.1 3.6-2 15.8-22.4 20.3l-.3.1c-1.3.3-4 .6-7.4.6-1.4 0-2.8-.1-4.2-.2-1.1-.1-2.2.6-2.5 1.8-.3 1.1.3 2.3 1.3 2.7 7.8 3.6 16.4 5.6 25.5 5.9h.1c4.9 0 9.8-.5 14.5-1.6 8.7-1.9 17.2-5.7 25.2-11.1.2-.1.3-.2.5-.3 11.4-7.8 19.7-18.8 24.9-32.6v-.1c2.1-6.9 2.8-13.2 2.1-18.6 4-1.3 7.2-3.2 9.4-5.6.9-.9 1-2.1.4-3z"/></svg>