<?xml version="1.0" encoding="utf-8"?>
<!-- Generator: Adobe Illustrator 19.0.1, SVG Export Plug-In . SVG Version: 6.00 Build 0)  -->
<svg version="1.1" id="Capa_1" xmlns="http://www.w3.org/2000/svg" xmlns:xlink="http://www.w3.org/1999/xlink" x="0px" y="0px"
	 viewBox="-161.9 -434.1 1242 1242" style="enable-background:new -161.9 -434.1 1242 1242;" xml:space="preserve">
<style type="text/css">
	.st0{fill:#CAE7FF;}
	.st1{fill:#FFFFFF;}
</style>
<circle class="st0" cx="459.1" cy="186.9" r="621"/>
<path class="st1" d="M592,193.6c24.5-33,39.2-75.4,39.2-121.5c0-105.6-77.1-191.3-172.1-191.3S287-33.5,287,72.1
	c0,46.1,14.7,88.5,39.2,121.5c-44.9,15.5-77.4,57.8-77.4,108v76.5c0,63.4,51.4,114.8,114.8,114.8h191.3
	c63.4,0,114.8-51.4,114.8-114.8v-76.5C669.5,251.4,637,209.2,592,193.6z M325.2,72.1c0-84.5,59.9-153,133.9-153S593-12.4,593,72.1
	s-59.9,153-133.9,153S325.2,156.6,325.2,72.1z M631.2,368.6c0,47.5-42,86.1-93.9,86.1H380.9c-51.9-0.1-93.9-38.6-93.9-86.1v-57.4
	c0-40.7,30.8-74.5,72.2-83.5c28.2,22.4,62.6,35.7,99.9,35.7s71.7-13.3,99.9-35.7c41.4,9,72.2,42.9,72.2,83.5V368.6z"/>
</svg>
