<svg xmlns="http://www.w3.org/2000/svg" viewBox="8 114.9 612 612"><path d="M351.3 427.6c24.5-33 39.2-75.4 39.2-121.5 0-105.6-77.1-191.3-172.1-191.3S46.3 200.5 46.3 306.1c0 46.1 14.7 88.5 39.2 121.5-45 15.6-77.5 57.8-77.5 108v76.5c0 63.4 51.4 114.8 114.8 114.8H314c63.4 0 114.8-51.4 114.8-114.8v-76.5c0-50.2-32.5-92.4-77.5-108zM84.5 306.1c0-84.5 59.9-153 133.9-153s133.9 68.5 133.9 153-59.9 153-133.9 153-133.9-68.5-133.9-153zm306 296.5c0 47.5-42 86.1-93.9 86.1H140.1c-51.8 0-93.9-38.5-93.9-86.1v-57.4c0-40.7 30.8-74.5 72.2-83.5 28.2 22.4 62.6 35.7 99.9 35.7s71.7-13.3 99.9-35.7c41.4 9 72.2 42.9 72.2 83.5v57.4zm57.4-334.7h153c10.6 0 19.1-8.6 19.1-19.1s-8.6-19.1-19.1-19.1h-153c-10.6 0-19.1 8.6-19.1 19.1 0 10.5 8.5 19.1 19.1 19.1zm153 76.5h-153c-10.6 0-19.1 8.6-19.1 19.1s8.6 19.1 19.1 19.1h153c10.6 0 19.1-8.6 19.1-19.1s-8.6-19.1-19.1-19.1zm0 114.7H486.1c-10.6 0-19.1 8.6-19.1 19.1s8.6 19.1 19.1 19.1h114.8c10.6 0 19.1-8.6 19.1-19.1s-8.6-19.1-19.1-19.1z"/></svg>