<svg id="Слой_1" xmlns="http://www.w3.org/2000/svg" viewBox="-237.4 122.6 961.1 548.4"><style>.st0{fill:#fff}</style><path class="st0" d="M718.6 617.9c-1.2-2.5-2.2-4.6-3.3-6.3-16.7-30-48.5-66.9-95.6-110.6l-1-1-.5-.5-.5-.5h-.5c-21.3-20.4-34.9-34-40.5-41-10.4-13.3-12.7-26.9-7-40.5 4-10.3 19-32.2 45-65.5 13.7-17.7 24.5-31.9 32.5-42.5 57.7-76.7 82.7-125.8 75.1-147.1l-3-5c-2-3-7.2-5.8-15.5-8.3-8.3-2.5-19-2.9-32-1.2l-144.1 1c-2.3-.8-5.7-.8-10 .3l-6.5 1.5-2.5 1.3-2 1.5c-1.7 1-3.5 2.7-5.5 5.2s-3.7 5.4-5 8.8c-15.7 40.4-33.5 77.9-53.6 112.6-12.3 20.7-23.7 38.6-34 53.8-10.3 15.2-19 26.4-26 33.5-7 7.2-13.3 12.9-19 17.3-5.7 4.3-10 6.2-13 5.5-3-.7-5.8-1.3-8.5-2-4.7-3-8.4-7.1-11.3-12.3-2.8-5.2-4.8-11.7-5.8-19.5-1-7.8-1.6-14.6-1.8-20.3-.2-5.7-.1-13.7.3-24 .3-10.3.5-17.3.5-21 0-12.7.2-26.4.7-41.3.5-14.8.9-26.6 1.3-35.3.3-8.7.5-17.9.5-27.5 0-9.7-.6-17.3-1.8-22.8-1.2-5.5-2.9-10.9-5.2-16-2.3-5.2-5.8-9.2-10.3-12-4.5-2.8-10.1-5.1-16.8-6.8-17.7-4-40.2-6.2-67.6-6.5-62-.7-101.9 3.3-119.6 12-7 3.7-13.3 8.7-19 15-6 7.3-6.8 11.3-2.5 12 20 3 34.2 10.2 42.5 21.5l3 6c2.3 4.3 4.7 12 7 23s3.8 23.2 4.5 36.5c1.7 24.4 1.7 45.2 0 62.6s-3.2 30.9-4.8 40.5c-1.5 9.7-3.8 17.5-6.8 23.5s-5 9.7-6 11c-1 1.3-1.8 2.2-2.5 2.5-4.3 1.7-8.9 2.5-13.5 2.5-4.7 0-10.3-2.3-17-7-6.7-4.7-13.6-11.1-20.8-19.3C62.1 357 54 345.6 45 330.9c-9-14.7-18.3-32-28-52l-8-14.5c-5-9.3-11.8-22.9-20.5-40.8s-16.4-35.1-23-51.8c-2.7-7-6.7-12.3-12-16l-2.5-1.5c-1.7-1.3-4.3-2.7-8-4.3-3.7-1.5-7.6-2.6-11.5-3.2l-137.1 1c-14 0-23.5 3.2-28.5 9.5l-2 3c-1 1.7-1.5 4.3-1.5 8s1 8.2 3 13.5c20 47 41.8 92.4 65.3 136.1s44 78.9 61.3 105.6c17.3 26.7 35 51.9 53 75.6 18 23.7 29.9 38.9 35.8 45.5 5.8 6.7 10.4 11.7 13.8 15l12.5 12c8 8 19.8 17.6 35.3 28.8 15.5 11.2 32.7 22.2 51.5 33 18.9 10.8 40.8 19.7 65.8 26.5 25 6.8 49.4 9.6 73.1 8.3h57.5c11.7-1 20.5-4.7 26.5-11l2-2.5c1.3-2 2.6-5.1 3.7-9.2 1.2-4.2 1.8-8.8 1.8-13.8-.3-14.3.8-27.3 3.2-38.8 2.5-11.5 5.3-20.2 8.5-26 3.2-5.8 6.8-10.8 10.8-14.8 4-4 6.8-6.4 8.5-7.3 1.7-.8 3-1.4 4-1.8 8-2.7 17.4-.1 28.3 7.8 10.8 7.8 21 17.5 30.5 29s20.9 24.4 34.3 38.8c13.4 14.3 25 25 35 32l10 6c6.7 4 15.4 7.7 26 11 10.7 3.3 20 4.2 28 2.5l128.1-2c12.7 0 22.5-2.1 29.5-6.3 7-4.2 11.2-8.8 12.5-13.8 1.3-5 1.4-10.7.3-17-.8-6.2-2-10.6-3.2-13.1z"/></svg>